<?xml version="1.0" encoding="UTF-8" standalone="no"?>
<svg
   xmlns:dc="http://purl.org/dc/elements/1.1/"
   xmlns:cc="http://creativecommons.org/ns#"
   xmlns:rdf="http://www.w3.org/1999/02/22-rdf-syntax-ns#"
   xmlns:svg="http://www.w3.org/2000/svg"
   xmlns="http://www.w3.org/2000/svg"
   viewBox="0 0 1506.6667 869.33331"
   height="869.33331"
   width="1506.6667"
   xml:space="preserve"
   id="svg2"
   version="1.1"><metadata
     id="metadata8"><rdf:RDF><cc:Work
         rdf:about=""><dc:format>image/svg+xml</dc:format><dc:type
           rdf:resource="http://purl.org/dc/dcmitype/StillImage" /></cc:Work></rdf:RDF></metadata><defs
     id="defs6"><clipPath
       id="clipPath18"
       clipPathUnits="userSpaceOnUse"><path
         id="path16"
         d="M 0,652 H 1130 V 0 H 0 Z" /></clipPath></defs><g
     transform="matrix(1.3333333,0,0,-1.3333333,0,869.33333)"
     id="g10"><g
       id="g12"><g
         clip-path="url(#clipPath18)"
         id="g14"><g
           transform="translate(520.854,346.2988)"
           id="g20"><path
             id="path22"
             style="fill:#000000;fill-opacity:1;fill-rule:nonzero;stroke:none"
             d="m 0,0 c 7.644,-9.564 10.727,-8.286 20.367,-2.951 3.799,2.101 7.986,3.29 11.682,5.962 2.352,1.699 7.264,0.051 10.993,-0.39 6.703,-0.793 13.369,-1.892 20.073,-2.677 2.071,-0.243 4.233,0.347 6.318,0.16 6.15,-0.553 12.275,-1.385 18.425,-1.956 6.572,-0.61 13.153,-1.23 19.745,-1.516 8.887,-0.386 17.834,-1.098 26.665,-0.449 6.277,0.462 12.353,3.209 18.615,4.444 6.452,1.274 13.049,2.848 19.534,2.656 7.413,-0.22 11.786,3.88 16.347,8.307 1.215,1.178 2.07,2.726 2.785,3.692 -0.445,9.807 -0.751,19.337 -1.342,28.848 -0.631,10.143 -1.459,20.276 -2.336,30.402 -0.867,10.007 -1.175,12.516 -2.093,22.074 -1.036,7.168 -2.248,9.44 -2.304,10.595 -0.403,8.302 -1.4,16.924 -1.674,25.234 -0.161,4.931 -0.527,9.857 -0.819,14.783 -0.24,4.05 -0.742,8.099 -0.706,12.146 0.055,6.072 0.521,12.094 0.201,18.224 -0.671,12.846 0.026,25.762 -0.585,38.613 -0.81,17.03 -2.229,34.034 -3.614,51.031 -0.463,5.686 -1.71,11.306 -2.377,16.982 -0.122,1.036 0.567,2.855 1.338,3.16 1.481,0.586 3.618,0.957 4.869,0.28 1.266,-0.685 2.565,-2.777 2.504,-4.195 -0.296,-6.839 -1.609,-13.668 -1.486,-20.482 0.141,-7.991 0.442,-15.987 0.641,-23.983 0.086,-3.47 2.043,-6.879 2.223,-10.364 0.435,-8.438 0.272,-16.905 0.458,-25.359 0.086,-3.918 0.489,-7.829 0.633,-11.747 0.774,-21.135 1.085,-42.299 2.418,-63.399 0.846,-13.41 3.34,-26.709 4.825,-40.089 1.254,-11.31 2.079,-22.668 3.174,-33.997 0.405,-4.2 1.263,-8.365 1.503,-12.569 0.242,-4.206 3.099,-4.642 6.162,-4.87 10.308,-0.766 20.63,-1.343 30.93,-2.198 5.803,-0.482 11.569,-1.879 17.359,-1.925 5.668,-0.045 11.342,1.542 17.02,1.588 4.647,0.038 9.29,-1.247 13.957,-1.744 4.627,-0.493 9.318,-1.204 13.907,-0.859 1.906,0.143 3.924,2.544 5.337,4.351 1.242,1.586 1.71,3.777 2.935,6.686 2.439,-1.547 4.414,-2.965 6.538,-4.104 2.545,-1.363 5.362,-2.261 7.778,-3.803 1.41,-0.901 2.83,-2.511 3.265,-4.075 1.272,-4.573 1.802,-9.358 3.166,-13.896 0.453,-1.508 2.384,-2.858 3.957,-3.651 1.219,-0.615 2.934,-0.338 4.424,-0.306 10.761,0.228 16.118,-4.056 18.128,-14.472 0.361,-1.871 0.932,-3.701 1.483,-5.85 15.349,0 30.463,-0.401 45.547,0.106 17.267,0.58 34.504,2.729 51.758,2.792 17.841,0.065 35.681,-1.726 53.534,-2.351 6.476,-0.226 12.985,0.734 19.484,0.84 4.306,0.071 9.929,2.41 12.414,-2.277 2.386,-4.5 3.844,-10.204 3.546,-15.253 -0.478,-8.124 -0.847,-8.745 6.447,-13.114 0.872,-0.522 1.093,-2.129 1.998,-4.04 6.424,3.951 14.342,5.397 18.478,12.976 2.75,5.037 5.865,9.878 8.911,14.747 5.56,8.885 21.198,7.86 26.486,-1.459 1.819,-3.206 4.735,-5.788 7.15,-8.657 v -12 c -1.828,2.093 -3.819,4.067 -5.451,6.302 -3.401,4.661 -6.317,9.714 -10.055,14.072 -1.395,1.627 -5.07,3.033 -6.751,2.312 -3.239,-1.39 -6.668,-3.831 -8.481,-6.78 -5.777,-9.396 -11.38,-18.418 -22.473,-22.799 -8.453,-3.339 -8.839,-5.447 -7.785,-15.846 0.147,-1.455 -1.147,-3.057 -1.774,-4.59 -1.371,1.398 -3.553,2.605 -3.934,4.234 -0.653,2.79 -0.181,5.843 -0.181,8.786 -0.417,0.148 -0.834,0.298 -1.251,0.446 -1.711,-1.977 -3.496,-3.897 -5.117,-5.947 -2.74,-3.466 -4.933,-2.46 -6.934,0.704 -1.662,2.629 -3.293,5.277 -5.601,8.98 -6.915,-7.786 -13.559,-15.266 -20.232,-22.782 -3.199,1.747 -4.694,3.957 -4.216,8.051 0.384,3.293 -0.938,6.784 -1.756,11.716 -5.021,-3.569 -9.684,-5.821 -12.884,-9.385 -5.961,-6.64 -11.096,-9.925 -20.074,-10.517 -0.432,4.462 -0.498,6.976 -5.675,7.592 -4.201,0.5 -9.743,4.302 -13.627,7.14 -1.192,0.872 -2.177,2.027 -3.902,3.667 -1.733,-3.583 -3.159,-6.855 -4.886,-9.96 -0.735,-1.324 -1.973,-3.039 -3.204,-3.246 -1.469,-0.245 -3.652,0.497 -4.674,1.6 -1.74,1.879 -2.987,4.29 -4.128,6.631 -1.543,3.165 -3.604,5.079 -6.834,4.409 -1.061,-4.355 -1.705,-8.572 -3.225,-12.443 -0.587,-1.494 -3.111,-2.855 -4.863,-3.009 -0.93,-0.082 -2.348,2.427 -3.113,3.98 -2.116,4.297 -4.005,8.707 -6.341,13.862 -1.972,-3.868 -3.328,-6.721 -4.86,-9.474 -1.482,-2.661 -3.216,-3.318 -5.799,-0.91 -1.126,1.05 -3.121,1.168 -4.878,1.763 -0.816,4.654 4.428,3.254 5.98,5.621 1.386,2.114 3.99,4.036 4.155,6.189 0.189,2.478 -0.205,4.592 2.523,5.588 2.703,0.987 4.839,0.791 6.126,-2.49 1.353,-3.45 3.096,-6.793 5.06,-9.938 1.026,-1.643 2.893,-2.76 3.959,-3.731 1.451,4.711 2.577,9.093 4.239,13.261 0.416,1.042 2.556,1.395 3.591,1.91 3.576,-5.332 6.933,-10.335 10.637,-15.858 4.956,4.418 2.956,14.142 11.561,15.451 0.846,-2.245 1.696,-4.506 2.104,-5.589 4.526,-3.339 8.53,-6.293 12.718,-9.383 1.821,3.834 3.423,7.209 4.946,10.416 3.866,-0.531 5.12,-1.679 4.658,-5.492 -0.409,-3.376 0.854,-7.101 1.979,-10.473 0.958,-2.873 2.93,-2.484 4.951,-0.533 4.028,3.887 8.025,7.837 12.35,11.376 3.036,2.485 6.549,4.409 9.932,6.444 4.041,2.432 5.681,1.678 6.878,-2.95 0.893,-3.455 1.781,-6.912 2.682,-10.412 3.794,2.921 7.151,5.443 10.396,8.1 0.343,0.281 -0.268,1.587 0.07,2.038 2.023,2.702 3.699,6.336 6.449,7.641 3.02,1.435 6.461,-0.147 7.466,-4.378 0.212,-0.894 1.523,-1.526 2.658,-2.587 1.607,3 2.651,4.763 1.855,8.676 -1.119,5.497 -2.771,11.281 -2.229,17.245 0.244,2.679 -1.194,5.511 -1.718,7.66 -8.374,0.846 -15.659,-1.406 -22.934,1.736 -2.849,1.23 -6.729,0.006 -10.14,0.015 -5.313,0.012 -10.628,0.03 -15.937,0.222 -3.458,0.125 -6.9,0.634 -10.357,0.845 -7.372,0.449 -14.765,1.349 -22.118,1.102 -13.635,-0.457 -27.24,-1.803 -40.874,-2.4 -10.891,-0.477 -21.81,-0.328 -32.714,-0.588 -4.014,-0.095 -8.018,-0.605 -12.032,-0.854 -4.65,-0.287 -9.306,-0.495 -14.067,-0.744 -1.626,5.678 -3.229,11.202 -4.784,16.74 -0.942,3.355 -3.284,4.35 -6.492,4.069 -4.622,-0.404 -9.243,-0.952 -13.87,-1.02 -1.234,-0.018 -3.068,1.212 -3.612,2.353 -1.068,2.237 -1.412,4.817 -2.079,7.248 -0.254,0.925 -1.112,2.191 -0.779,2.689 2.541,3.798 1.88,7.614 -0.978,10.357 -2.531,2.43 -6.166,3.713 -9.322,5.486 -0.275,0.154 -0.613,0.191 -0.978,0.299 -1.554,-2.896 -3.036,-5.839 -4.739,-8.648 -0.286,-0.471 -1.629,-0.674 -2.326,-0.468 -11.413,3.37 -23.148,2.193 -34.75,2.268 -6.391,0.041 -12.785,-1.274 -19.192,-1.816 -1.406,-0.119 -3.262,-0.028 -4.24,0.78 -3.856,3.185 -8.26,1.886 -12.496,2.003 -1.703,0.047 -3.411,-0.09 -5.113,-0.031 -6.973,0.24 -13.954,0.859 -20.912,0.651 -3.507,-0.104 -6.125,-2.507 -5.227,-6.613 1.56,-7.118 -1.07,-13.289 -6.283,-17.13 -4.768,-3.513 -10.444,-7.161 -16.869,-6.842 -11.864,0.588 -22.516,-4.597 -33.86,-6.308 -4.816,-0.727 -9.771,-1.196 -14.618,-0.935 -14.208,0.765 -28.395,1.93 -42.588,2.99 -10.072,0.752 -20.139,1.582 -30.208,2.387 -6.037,0.484 -12.059,2.704 -18.124,0.064 -0.886,-0.385 -2.362,-0.096 -2.814,-0.691 -4.424,-5.824 -11.271,-5.092 -17.284,-6.588 -2.131,-0.53 -4.264,-1.192 -6.434,-1.404 -11.636,-1.14 -13.965,8.746 -17.6,16.026 -2.96,5.928 -3.713,12.941 -5.598,19.428 -3.035,10.445 -6.836,20.347 -15.377,27.96 -3.211,2.864 -4.727,7.563 -7.301,11.224 -2.886,4.105 -5.983,8.077 -9.199,11.93 -2.748,3.292 -6.115,6.105 -8.594,9.569 -1.645,2.297 -3.187,5.409 -3.077,8.087 0.356,8.644 -4.083,13.751 -11.016,17.685 -2.848,1.617 -5.386,3.777 -8.631,6.094 -3.851,-4.084 -7.749,-8.335 -11.772,-12.462 -8.463,-8.679 -20.839,-9.616 -30.559,-2.395 -0.338,0.25 -0.899,0.246 -1.274,0.381 -2.982,1.068 -3.319,1.115 -5.75,1.625 -1.769,0.71 -3.125,0.812 -5.291,1.485 -4.933,3.615 -8.75,3.327 -14.167,4.536 -0.314,-0.024 -0.34,0.696 -0.408,1.416 -0.032,0.346 0.767,1.632 1.15,1.546 3.482,-0.79 9.168,-1.952 12.625,-2.85 2.322,-0.603 4.697,-1.049 6.958,-1.828 5.413,-1.863 10.711,-4.078 16.169,-5.79 7.367,-2.311 13.336,-0.263 18.058,6.06 2.389,3.199 5.44,5.931 8.367,8.689 1.958,1.846 4.223,3.366 6.011,4.766 2.55,-1.627 4.435,-2.79 6.28,-4.014 4.854,-3.223 9.832,-6.288 14.442,-9.831 1.286,-0.989 0.997,-3.9 2.233,-5.103 3.925,-3.819 2.46,-9.599 5.224,-13.577 8.426,-12.126 17.105,-24.08 25.846,-35.982 2.437,-3.318 5.62,-6.084 8.097,-9.377 1.428,-1.897 2.37,-4.263 3.112,-6.554 3.398,-10.497 6.686,-21.032 9.847,-31.602" /></g><g
           transform="translate(1.1836,273.9814)"
           id="g24"><path
             id="path26"
             style="fill:#000000;fill-opacity:1;fill-rule:nonzero;stroke:none"
             d="m 0,0 c -0.31,-1.268 -0.771,-3.148 -1.23,-5.03 v 13 c 0.562,-1.284 1.124,-2.569 1.687,-3.856 4.664,0.138 9.394,2.268 14.987,-0.216 0.426,4.032 1.459,8.456 1.183,12.796 -0.254,3.984 2.168,7.723 -0.334,12.113 -1.923,3.376 3.511,8.315 7.045,6.711 4.271,-1.939 6.497,0.71 8.894,3.156 0.767,0.782 0.909,2.139 1.524,3.114 3.274,5.195 4.456,5.44 9.061,1.132 3.798,-3.552 8.12,-5.528 13.241,-6.274 1.517,-0.222 2.841,-1.774 4.126,-2.631 2.662,3.091 4.93,6.41 7.882,8.923 2.119,1.802 7.862,-1.559 9.022,-4.308 2.569,-0.988 4.596,-1.984 6.737,-2.55 5.514,-1.456 11.074,-3.634 16.625,-3.661 2.596,-0.013 5.504,4.029 7.759,6.67 4.304,5.04 13.014,2.499 18.061,-0.07 2.75,-1.25 4.315,-1.711 6.25,-2.125 3.603,-0.773 6.246,-0.727 9.657,-2.097 4.857,-1.95 6.462,0.331 7.709,4.569 1.006,3.417 2.918,6.567 4.427,9.834 4.727,-4.517 8.667,-8.509 12.872,-12.197 1.816,-1.594 4.651,-3.982 6.184,-3.475 2.183,0.724 4.2,3.517 5.227,5.886 4.345,10.027 9.029,12.711 18.655,6.092 3.031,-2.084 6.8,-3.096 9.903,-4.454 2.131,2.617 3.858,5.278 6.154,7.291 0.92,0.805 3.509,0.824 4.624,0.1 5.078,-3.296 9.9,-6.987 14.819,-10.528 3.582,-2.578 9.399,-0.542 11.017,3.829 1.518,4.105 1.652,5.523 5.168,7.692 0.552,-0.167 2.494,-0.219 1.835,-1.001 4.078,-2.744 6.687,-4.499 11.411,-7.679 0.966,1.278 2.544,2.824 3.464,4.694 2.03,4.123 5.421,5.403 9.788,3.696 4.373,-1.71 7.864,-4.111 10.188,-8.427 1.024,-1.903 3.434,-3.06 5.517,-4.809 2.25,3.197 4.431,6.296 7.191,10.216 1.103,-2.212 1.382,-3.329 2.075,-4.048 1.627,-1.689 2.73,-5.054 6.028,-1.393 2.272,2.521 15.645,1.128 16.834,-1.757 1.193,-2.894 2.048,-6.624 1.266,-9.503 -2.117,-7.794 0.546,-15.283 0.335,-22.894 -0.053,-1.884 -0.936,-3.744 -1.438,-5.614 -0.606,0.027 -1.212,0.056 -1.819,0.084 -0.599,2.755 -1.602,5.492 -1.718,8.267 -0.276,6.59 -0.047,13.201 -0.184,19.8 -0.116,5.585 -3.469,8.899 -8.647,8.084 -1.744,-0.275 -3.315,-2.233 -4.764,-3.631 -1.439,-1.389 -2.624,-3.042 -4.18,-4.886 -1.314,2.472 -2.307,4.344 -3.285,6.184 -2.807,-2.544 -5.137,-4.656 -6.895,-6.249 -5.974,4.927 -11.448,9.191 -16.617,13.797 -3.196,2.847 -5.017,1.109 -6.795,-1.369 -0.754,-1.052 -1.064,-2.411 -1.683,-3.573 -2.542,-4.77 -4.683,-5.048 -8.906,-1.742 -2.9,2.269 -6.153,4.087 -9.248,6.106 0.489,0.742 0.977,1.483 1.466,2.226 -1.826,-2.919 -3.519,-5.933 -5.508,-8.738 -3.69,-5.205 -10.834,-5.281 -15.561,-1.083 -4.209,3.74 -9.165,6.636 -14.89,10.681 -0.284,-2.918 -0.022,-4.768 -0.697,-6.162 -1.141,-2.353 -2.481,-5.056 -4.534,-6.321 -0.96,-0.592 -4.316,1.374 -5.656,2.963 -4.796,5.687 -12.918,9.445 -17.163,6.513 -2.934,-2.026 -5.232,-5.447 -6.908,-8.711 -2.753,-5.359 -8.208,-6.853 -13.689,-2.143 -2.475,2.127 -4.403,4.896 -6.913,6.97 -0.55,0.454 -3.234,-0.433 -3.73,-1.353 -4.763,-8.823 -8.266,-10.119 -17.442,-6.431 -4.473,1.799 -8.44,2.695 -13.007,4.256 -0.459,0.157 -2.192,0.865 -2.564,1.118 -5.231,3.553 -8.648,2.595 -13.517,-2.689 -5.676,-6.161 -12.079,-5.936 -19.889,-3.139 -5.633,2.017 -10.282,4.822 -15.016,8.052 -1.231,0.84 -3.104,0.74 -4.677,1.07 -0.427,-0.657 -0.834,-1.021 -0.916,-1.449 -1.643,-8.512 -7.322,-11.059 -14.999,-6.742 -2.103,1.181 -4.433,2.011 -6.393,3.383 -2.012,1.407 -3.698,3.279 -6.152,5.517 C 37.365,32.101 30.929,30.448 24.422,28.751 23.552,28.524 22.476,26.876 22.47,25.88 22.402,14.213 22.491,2.544 22.635,-9.123 c 0.013,-1.093 1.108,-2.248 0.944,-3.251 -0.305,-1.869 -0.878,-3.846 -1.931,-5.369 -0.453,-0.656 -3.026,-0.851 -3.504,-0.29 -1.155,1.353 -2.071,3.222 -2.291,4.982 -0.28,2.225 0.362,4.548 0.366,6.829 0.007,4.382 -1.574,5.553 -7.591,5.849" /></g><g
           transform="translate(241.8408,39.3662)"
           id="g28"><path
             id="path30"
             style="fill:#000000;fill-opacity:1;fill-rule:nonzero;stroke:none"
             d="m 0,0 c -0.02,0 -0.039,0 -0.059,0.001 0,2.322 0.501,4.809 -0.182,6.909 C -0.672,8.236 -2.908,9.816 -4.27,9.759 -5.596,9.702 -7.882,7.75 -7.933,6.553 c -0.191,-4.45 0.09,-8.978 0.81,-13.376 0.215,-1.311 2.43,-3.134 3.76,-3.16 1.097,-0.022 2.814,2.1 3.223,3.562 C 0.42,-4.425 0,-2.153 0,0 m -9.888,-37.415 c -0.023,6.985 0.074,13.973 -0.099,20.953 -0.198,7.957 -0.26,16.014 -0.567,23.968 -0.074,1.935 -0.402,3.769 -0.402,5.218 0.803,-0.09 1.637,-2.137 2.364,-1.909 4.974,1.563 4.957,0.955 6.959,1.019 3.398,0.11 3.645,-3.319 3.679,-4.501 0.183,-6.308 0.21,-17.574 0.014,-19.446 -0.51,-0.503 -6.76,-0.233 -10.051,0.747 0,-8.767 0.103,-17.781 0.103,-26.049 z" /></g><g
           transform="translate(26.1846,233.0479)"
           id="g32"><path
             id="path34"
             style="fill:#000000;fill-opacity:1;fill-rule:nonzero;stroke:none"
             d="m 0,0 c 0,-2.166 -0.059,-3.771 0.009,-5.372 0.654,-15.387 1.352,-30.772 1.986,-46.158 0.233,-5.657 4.141,-8.449 9.34,-6.35 4.426,1.787 6.784,5.115 6.734,10.045 -0.141,13.955 -0.222,27.911 -0.342,41.866 -0.033,3.783 -1.815,5.946 -5.759,5.965 C 8.319,0.015 4.669,0 0,0 m 4.112,-73.249 c -5.065,-20.243 -2.498,-40.292 -2.996,-60.427 -1.405,-0.168 -2.343,-0.384 -3.276,-0.364 -0.963,0.02 -1.921,0.27 -3.95,0.587 0,13.866 -0.236,27.792 0.08,41.705 0.226,9.955 1.77,19.898 1.687,29.839 -0.115,13.843 -1.313,27.673 -1.825,41.517 -0.265,7.147 -0.252,14.319 0.028,21.464 0.163,4.183 1.786,7.178 7.127,6.481 5.761,-0.752 11.638,-0.59 17.411,-1.28 1.434,-0.17 3.414,-1.862 3.825,-3.247 0.888,-2.983 1.252,-6.222 1.249,-9.356 -0.016,-16.483 -0.299,-32.968 -0.288,-49.451 0.003,-4.186 -1.049,-6.757 -5.504,-8.072 -6.022,-1.778 -6.407,-3.784 -4.284,-9.658 4.213,-11.659 7.972,-23.483 12.205,-35.135 1.581,-4.351 3.972,-8.407 5.973,-12.608 0.498,-1.046 1.062,-2.095 1.337,-3.205 0.672,-2.718 1.753,-6.16 -1.657,-7.3 -3.121,-1.043 -4.513,1.493 -5.592,4.584 -5.548,15.884 -11.382,31.67 -17.309,47.416 -0.891,2.367 -2.802,4.35 -4.241,6.51" /></g><g
           transform="translate(815.8994,160.0752)"
           id="g36"><path
             id="path38"
             style="fill:#000000;fill-opacity:1;fill-rule:nonzero;stroke:none"
             d="m 0,0 c 0,3.325 -0.027,5.942 0.005,8.558 0.155,12.564 0.31,25.129 0.499,37.693 0.102,6.859 0.438,13.723 0.258,20.573 -0.034,1.312 -1.78,3.005 -3.151,3.681 -0.73,0.36 -3.027,-0.782 -3.455,-1.758 -2.67,-6.073 -5.616,-12.131 -7.316,-18.502 -2.411,-9.036 -3.865,-18.33 -5.653,-27.529 -1.484,-7.634 -2.86,-15.288 -4.536,-24.288 C -14.683,-0.988 -7.732,-0.521 0,0 m -33.852,-61.507 c -4.853,0.935 -5.622,2.679 -4.857,6.272 3.464,16.281 6.701,32.612 9.774,48.972 1.586,8.444 2.488,17.015 4.007,25.474 1.757,9.779 3.697,19.533 5.861,29.23 1.424,6.387 3.094,12.756 5.239,18.93 0.962,2.768 2.841,6.201 5.222,7.251 3.278,1.444 8.028,2.27 11.061,0.92 C 7.187,73.436 6.937,67.656 6.663,63.21 5.579,45.637 4.111,28.102 5.453,10.463 5.896,4.643 5.381,-1.243 5.595,-7.088 c 0.512,-14.038 1.226,-28.069 1.789,-42.105 0.098,-2.476 0.088,-5.006 -0.339,-7.429 -0.173,-0.982 -1.596,-1.743 -2.45,-2.605 -0.725,0.969 -1.964,1.876 -2.088,2.917 -0.66,5.537 -1.234,11.099 -1.478,16.667 -0.398,9.107 -0.599,18.224 -0.726,27.338 -0.077,5.532 -2.761,7.817 -8.396,7.142 -4.075,-0.487 -8.192,-0.774 -12.295,-0.816 -2.567,-0.026 -3.866,-0.586 -4.349,-3.438 -1.573,-9.266 -3.385,-18.494 -5.284,-27.7 -1.099,-5.325 -2.736,-10.542 -3.748,-15.881 -0.485,-2.564 -0.083,-5.296 -0.083,-8.509" /></g><g
           transform="translate(488.2705,214.8721)"
           id="g40"><path
             id="path42"
             style="fill:#000000;fill-opacity:1;fill-rule:nonzero;stroke:none"
             d="m 0,0 c 0.399,12.322 -2.207,15.637 -11.703,14.8 -1.268,-0.112 -3.394,-1.952 -3.407,-3.012 -0.105,-8.732 -0.049,-17.483 0.44,-26.202 0.483,-8.625 1.827,-17.205 2.243,-25.831 0.42,-8.705 0.129,-8.527 9.084,-8.772 4.515,-0.122 5.98,1.884 5.785,5.947 -0.286,6 -0.492,12.003 -0.838,17.999 C 1.121,-16.712 0.539,-8.356 0,0 m -15.709,-101.954 c -0.533,8.916 -0.744,16.711 -1.143,25.634 -0.493,11.019 -0.445,22.073 -1.263,33.065 -0.811,10.882 -2.887,21.678 -3.517,32.564 -0.555,9.58 -0.014,19.238 0.442,28.842 0.053,1.114 2.683,3.029 4.074,2.991 5.117,-0.141 10.265,-0.671 15.308,-1.572 C 4.676,18.412 6.861,13.94 6.9,7.427 6.992,-7.945 7.923,-23.312 8.4,-38.684 8.533,-42.94 8.948,-47.395 7.874,-51.393 7.386,-53.206 3.72,-54.68 1.243,-55.301 c -2.486,-0.624 -5.291,-0.077 -7.946,0.108 -3.154,0.22 -4.703,-1.001 -4.506,-4.293 0.561,-9.383 1.037,-18.771 1.597,-28.154 0.489,-8.198 1.064,-16.39 1.559,-24.589 0.124,-2.059 0.815,-5.221 -2.423,-4.629 -1.985,0.363 -4.405,2.846 -5.06,4.883 -0.872,2.708 -0.215,5.91 -0.215,8.898 0.066,1.36 0.008,0.373 0.042,1.123" /></g><g
           transform="translate(964.4131,123.7393)"
           id="g44"><path
             id="path46"
             style="fill:#000000;fill-opacity:1;fill-rule:nonzero;stroke:none"
             d="m 0,0 0.152,-0.023 c 0.389,-2.602 0.221,-5.482 1.341,-7.716 0.889,-1.771 3.305,-3.78 5.133,-3.87 3.977,-0.198 8.003,4.193 7.832,8.253 C 14.229,2.093 14.261,6.968 16.027,12.633 18.07,19.187 15.652,27.321 14.4,34.637 13.668,38.914 11.845,43.165 9.71,46.979 8.511,49.12 5.799,51.337 3.535,51.613 2.201,51.776 -0.517,48.41 -0.977,46.278 -1.907,41.968 -2.101,37.402 -1.923,32.969 -1.483,21.971 -0.666,10.988 0,0 m 14.776,-17.802 c -0.725,0.098 -1.051,0.205 -1.364,0.175 C -0.8,-19 -3.979,-16.507 -5.463,-2.124 -6.5,7.932 -7.782,18.025 -7.788,28.103 c -0.004,7.956 1.102,16.073 2.97,23.816 1.429,5.934 7.755,7.673 12.839,3.874 3.164,-2.362 5.822,-5.834 7.744,-9.337 5.127,-9.343 5.411,-19.873 5.586,-30.129 0.46,-26.958 0.278,-53.927 0.522,-80.89 0.054,-5.946 1.057,-11.884 1.078,-17.829 0.007,-1.659 -1.577,-3.807 -3.05,-4.891 -3.572,-2.631 -14.904,-2.023 -18.139,0.896 -0.831,0.749 -1.295,3.365 -0.764,3.849 0.997,0.911 2.936,1.404 4.313,1.149 2.384,-0.441 4.579,-1.891 6.962,-2.351 2.548,-0.492 4.663,0.344 4.661,3.596 -0.01,13.113 0.11,26.227 -0.043,39.338 -0.071,5.97 -0.609,11.938 -1.064,17.896 -0.135,1.765 -0.707,3.497 -1.051,5.108" /></g><g
           transform="translate(404.6484,301.4961)"
           id="g48"><path
             id="path50"
             style="fill:#000000;fill-opacity:1;fill-rule:nonzero;stroke:none"
             d="m 0,0 c 3.547,2.97 6.367,5.771 9.609,7.939 4.491,3.003 8.303,2.209 11.937,-1.856 3.043,-3.405 7.052,-3.643 10.771,-1.113 3.362,2.285 6.86,4.514 10.589,6.07 2.933,1.224 5.244,-0.066 7.575,-2.846 3.621,-4.318 7.602,-9.577 14.197,-8.515 3.146,0.506 6.155,3.057 8.793,5.213 3.242,2.65 5.626,6.576 9.16,8.565 2.351,1.324 6.463,1.128 9.07,-0.019 3.306,-1.453 5.91,-4.531 8.757,-6.977 0.579,-0.498 1.055,-1.368 1.261,-1.966 1.586,-4.619 4.507,-2.894 6.792,-1.758 4.661,2.319 6.84,4.027 11.335,6.674 0.464,0.274 1.078,0.527 1.291,0.956 4.4,8.847 10.607,7.375 17.283,2.419 4.385,-3.254 7.946,-7.605 12.002,-11.328 0.862,-0.791 2.274,-0.982 3.432,-1.452 1.463,-0.593 2.926,-1.188 5.471,-2.221 -3.506,-1.707 -5.773,-2.811 -8.79,-4.28 -2.451,3.167 -5.757,6.256 -7.573,10.057 -2.872,6.011 -6.968,8.758 -13.529,7.896 -1.912,-0.251 -4.391,0.701 -4.082,-3.079 0.083,-1.016 -2.455,-2.372 -3.928,-3.367 -5.567,-3.761 -11.19,-7.439 -17.705,-11.752 -1.51,1.916 -3.532,4.792 -5.875,7.378 C 95.09,3.675 92.12,6.527 89.085,9.286 88.582,9.744 87,9.687 86.372,9.233 80.144,4.744 73.966,0.181 67.868,-4.484 63.832,-7.571 55.797,-6.388 51.508,-1.726 49.158,0.83 47.306,5.521 44.805,5.832 41.719,6.215 38.166,3.096 34.865,1.392 32.157,-0.006 29.568,-2.621 26.846,-2.733 23.92,-2.854 19.985,-1.462 18.154,0.687 15.906,3.325 14.503,3.836 11.72,2.197 8.954,0.568 6.034,-0.797 2.367,-2.7 c -1.76,0.429 -5.291,0.494 -7.814,2.121 -2.823,1.821 -4.732,5.058 -7.097,7.747 -6.631,-1.816 -9.704,-7.474 -13.172,-12.83 -0.537,-0.829 -0.756,-1.97 -2.146,-3.834 -1.142,-2.642 -3.262,-4.51 -6.69,-5.586 -6.736,-2.114 -8.379,-7.947 -4.05,-14.122 -1.131,-1.019 -2.365,-2.029 -3.483,-3.155 -2.301,-2.318 -3.982,-1.223 -4.478,1.258 -0.72,3.599 -1.565,7.472 -0.905,10.953 0.533,2.815 2.631,6.205 5.044,7.631 7.954,4.704 13.137,11.954 18.997,18.645 3.269,3.733 7.262,6.009 12.501,4.605 0.766,-0.206 1.712,-0.364 2.198,-0.891 C -5.871,6.748 -3.125,3.552 0,0" /></g><g
           transform="translate(389.5117,102.6563)"
           id="g52"><path
             id="path54"
             style="fill:#000000;fill-opacity:1;fill-rule:nonzero;stroke:none"
             d="m 0,0 c -0.54,10.88 -0.744,22.085 -1.905,33.189 -0.275,2.627 -3.354,5.56 -5.889,7.193 -2.906,1.87 -5.706,-0.159 -5.207,-3.431 C -11.22,25.27 -9.016,13.647 -6.716,2.054 -6.076,-1.173 -3.75,-2.162 0,0 m -19.992,49.271 c -0.619,0.918 -1.538,1.757 -1.809,2.769 -2.521,9.41 -2.224,18.747 1.231,27.887 1.603,4.242 7.551,6.835 13.411,6.088 C -1.405,85.281 3.272,81.229 3.396,76.066 3.909,54.72 4.28,33.369 4.483,12.017 4.519,8.309 4.461,5.521 8.58,3.511 c 2.738,-1.337 4.688,-4.533 6.596,-7.181 0.593,-0.822 0.373,-3.077 -0.347,-3.767 -0.773,-0.741 -3.512,-0.941 -3.776,-0.469 -2.59,4.614 -6.159,2.643 -9.547,1.684 -7.525,-2.13 -12.008,-0.507 -13.871,7.004 -2.71,10.926 -4.371,22.129 -6.111,33.272 -0.719,4.607 2.461,7.778 5.913,10.189 2.429,1.696 5.211,2.03 7.564,-0.625 0.682,-0.768 1.615,-1.315 3.662,-2.94 0,6.839 -0.028,12.324 0.011,17.809 0.022,3.098 -0.187,6.251 0.316,9.28 0.867,5.235 -1.786,10.916 -5.894,11.444 -7.533,0.97 -10.718,-1.587 -11.753,-9.709 -0.738,-5.79 0.18,-11.79 0.317,-17.698 0.014,-0.621 -0.259,-1.249 -0.399,-1.873 -0.418,-0.221 -0.836,-0.441 -1.253,-0.66" /></g><g
           transform="translate(528.7148,149.4053)"
           id="g56"><path
             id="path58"
             style="fill:#000000;fill-opacity:1;fill-rule:nonzero;stroke:none"
             d="m 0,0 c 1.172,-8.228 1.957,-15.237 3.231,-22.157 0.845,-4.584 0.596,-9.588 4.425,-13.297 3.501,-3.39 7.609,-3.029 8.976,1.306 1.187,3.759 1.777,7.719 2.467,11.621 0.597,3.38 -0.035,5.804 -3.961,7.264 -2.59,0.964 -4.627,3.634 -6.683,5.761 C 5.719,-6.672 3.204,-3.626 0,0 m 17.749,-10.313 c 0.429,0.188 0.858,0.375 1.287,0.563 0.119,0.799 0.287,1.595 0.349,2.397 0.868,11.329 -3.801,21.686 -5.804,32.51 -0.314,1.696 -1.617,3.267 -2.665,4.752 -1.602,2.267 -3.961,2.42 -5.352,0.28 C 3.667,27.272 1.526,23.948 1.24,20.647 0.035,6.758 9.88,-1.295 17.749,-10.313 m -23.89,24.631 c -0.207,4.114 -0.899,8.279 -0.472,12.326 0.366,3.466 1.419,7.173 3.258,10.085 1.929,3.055 4.782,4.219 9.223,2.537 9.922,-3.76 13.183,-11.015 14.333,-20.752 0.869,-7.357 3.86,-14.459 4.767,-21.816 0.675,-5.482 0.008,-11.271 -0.933,-16.774 -1.076,-6.291 -2.228,-12.847 -4.972,-18.499 -3.122,-6.434 -8.499,-6.244 -13.995,-1.279 -4.886,4.416 -5.306,10.228 -6.129,16.059 -1.561,11.056 -3.232,22.097 -4.817,33.149 -0.235,1.636 -0.251,3.304 -0.369,4.957 0.036,0.002 0.071,0.005 0.106,0.007" /></g><g
           transform="translate(212.4531,443.75)"
           id="g60"><path
             id="path62"
             style="fill:#000000;fill-opacity:1;fill-rule:nonzero;stroke:none"
             d="m 0,0 c -2.459,0.129 -2.617,0.572 -4.667,0.833 -4.812,0.615 -8.31,1.315 -11.131,4.464 -5.027,5.611 -9.384,11.818 -14.124,17.693 -2.472,3.063 -6.141,8.666 -12.541,8.089 l 0.984,3.379 c 3.486,1.922 9.783,-1.701 12.118,-4.86 3.54,-4.791 6.846,-9.92 11.148,-13.95 C -10.614,8.528 -2.104,2.775 9.31,5.15 c 0.789,0.164 1.689,0.168 2.465,-0.034 9.73,-2.526 19.641,4.498 20.938,14.587 0.619,4.819 1.747,9.593 2.992,14.295 0.233,0.882 2.407,2.133 3.183,1.848 5.973,-2.196 11.822,-4.729 17.709,-7.159 0.153,-0.063 0.363,-0.1 0.439,-0.218 4.743,-7.397 13.764,-7.538 20.563,-11.332 3.183,-1.777 5.572,-3.986 7.782,-6.266 3.086,-3.183 5.256,-2.996 8.349,-0.362 3.989,3.396 7.877,7.306 12.524,9.435 5.916,2.709 12.869,4.792 19.125,2.072 4.744,-2.062 8.461,-6.463 12.683,-9.763 1.053,-0.823 2.288,-1.415 3.439,-2.113 -0.015,-0.261 -0.03,-0.522 -0.046,-0.783 -4.536,-1.731 -8.483,0.446 -11.148,3.276 -4.166,4.421 -8.773,6.856 -14.703,6.667 -1.403,-0.045 -2.739,-1.234 -4.166,-1.72 C 104.583,15.244 99.508,10.546 94.713,5.363 89.84,0.094 85.49,1.033 81.596,7.293 79.995,9.868 78.402,12.174 74.11,13.147 67.487,14.649 61.087,18.664 55.533,22.858 51.25,26.093 46.687,25.864 42.145,26.657 41.382,26.79 39.585,24.861 39.379,23.689 38.156,16.726 34.58,11.501 29.642,6.426 24.931,1.584 19.516,1.085 13.682,0.476 11.752,0.275 9.847,-0.654 7.956,-0.583" /></g><g
           transform="translate(91.7949,166.375)"
           id="g64"><path
             id="path66"
             style="fill:#000000;fill-opacity:1;fill-rule:nonzero;stroke:none"
             d="m 0,0 c -0.317,-1.719 -0.344,-3.25 -0.411,-5.031 -0.09,-1.658 0.067,-1.654 -0.014,-3.313 -0.258,-5.278 1.904,-6.861 7.208,-6.701 1.478,0.045 3.105,-0.203 4.391,0.335 1.278,0.534 2.901,1.723 3.188,2.91 C 16.446,-3.194 13.223,4.513 9.531,11.958 7.982,15.081 4.259,15.068 2.946,11.813 1.083,7.194 1.303,4.846 0,0 m 26.083,-18.533 c -7.669,-0.74 -14.24,-1.487 -20.831,-1.963 -3.21,-0.233 -5.769,-0.757 -5.17,-4.816 1.129,-7.666 2.166,-15.349 3.522,-22.975 0.738,-4.15 3.724,-6.248 7.859,-5.958 3.365,0.235 6.666,1.297 10.032,1.607 1.48,0.137 3.314,-0.341 4.452,-1.228 0.49,-0.381 0.082,-2.961 -0.708,-3.772 -5.661,-5.803 -21.184,-5.039 -25.693,1.433 -1.724,2.474 -2.363,5.735 -3.339,8.69 -4.46,13.512 -3.309,27.414 -2.83,41.274 0.079,2.265 -0.02,4.561 -0.299,6.811 -0.964,7.768 3.206,13.422 8.347,18.047 4.756,4.279 10.877,3.081 13.188,-2.812 4.315,-11.002 7.56,-22.424 11.47,-34.338" /></g><g
           transform="translate(260.5918,140.5879)"
           id="g68"><path
             id="path70"
             style="fill:#000000;fill-opacity:1;fill-rule:nonzero;stroke:none"
             d="m 0,0 c 7.425,-5.229 7.656,-12.041 7.011,-19.233 -0.308,-3.435 -0.274,-6.907 -0.25,-10.361 0.028,-3.9 1.771,-6.235 5.999,-6.216 4.349,0.021 6.412,2.465 6.673,6.468 0.614,9.458 -2.189,18.098 -6.183,26.575 C 8.067,8.231 3.148,19.367 -1.464,30.615 c -3.415,8.328 0.211,15.865 8.448,18.959 6.437,2.418 12.314,-1.195 13.335,-8.089 1.644,-11.089 3.487,-22.152 4.935,-33.267 0.2,-1.534 -0.434,-3.264 -2.268,-3.729 -1.125,0 -2.73,1.187 -2.924,2.57 -0.884,6.315 -2.042,12.733 -1.706,19.04 C 18.7,32.557 15.907,37.463 12.82,42.388 11.362,44.714 5.185,43.601 4.639,40.9 4.015,37.816 3.414,34.096 4.557,31.395 9.789,19.024 15.872,7.016 21.149,-5.336 c 2.249,-5.264 3.562,-10.987 4.782,-16.614 1.401,-6.465 -0.759,-12.73 -5.298,-16.807 -2.658,-2.387 -8.192,-3.044 -12.004,-2.298 -4.708,0.921 -5.438,6.276 -6.032,10.45 -1.272,8.934 -2.095,17.933 -3.031,26.913 C -0.541,-2.658 -0.199,-1.577 0,0" /></g><g
           transform="translate(704.5098,183.0244)"
           id="g72"><path
             id="path74"
             style="fill:#000000;fill-opacity:1;fill-rule:nonzero;stroke:none"
             d="m 0,0 c -4.307,0.092 -7.565,-3.197 -8.117,-8.19 -0.862,-7.802 5.869,-18.519 13.337,-21.27 2.688,-0.99 3.615,-0.291 3.259,2.706 -0.732,6.17 -1.607,12.379 -1.563,18.566 C 6.947,-3.737 4.556,-0.097 0,0 m -6.101,-29.229 c 0,-1.867 -0.278,-3.681 0.045,-5.382 2.313,-12.181 4.71,-24.346 7.198,-36.493 0.271,-1.321 1.283,-2.49 1.952,-3.73 1.205,0.967 2.689,1.737 3.544,2.951 1.024,1.455 1.974,3.24 2.15,4.966 0.739,7.24 1.613,14.517 1.527,21.77 -0.039,3.315 -1.285,7.632 -3.595,9.661 -3.274,2.874 -8.035,4.051 -12.821,6.257 m -4.634,-2.147 c -0.654,6.882 -1.838,13.772 -1.749,20.644 0.048,3.718 1.777,7.684 3.646,11.038 2.064,3.702 6.069,5.456 10.221,4.503 5.655,-1.299 9.222,-5.639 10.091,-11.071 1.995,-12.467 4.207,-25.023 4.54,-37.592 0.245,-9.273 -2.214,-18.642 -3.758,-27.921 -0.332,-1.998 -1.448,-4.388 -2.99,-5.575 -7.176,-5.521 -10.994,-5.482 -12.974,2.963 -3.315,14.141 -3.963,27.248 -6.682,41.53 -0.201,0.794 0.056,-0.297 -0.345,1.481" /></g><g
           transform="translate(840.7656,285.833)"
           id="g76"><path
             id="path78"
             style="fill:#000000;fill-opacity:1;fill-rule:nonzero;stroke:none"
             d="m 0,0 1.722,-1.01 c -1.341,-2.826 -2.745,-5.888 -4.564,-9.722 -4.694,8.538 -8.639,15.712 -13.133,23.887 -3.354,-3.595 -6.114,-6.691 -9.032,-9.631 -1.745,-1.756 -3.727,-4.582 -5.624,-4.599 -3.414,-0.031 -7.344,0.348 -8.701,5.271 -0.822,2.98 -3.349,5.489 -5.273,8.463 -1.203,-5.27 -3.466,-9.729 -9.041,-11.074 -4.411,5.598 -8.863,11.026 -13.05,16.652 -2.095,2.815 -3.448,3.437 -5.13,-0.258 -2.665,-5.856 -5.346,-11.723 -8.436,-17.357 -1.089,-1.986 -3.398,-3.303 -5.256,-5.021 -1.891,5.524 -3.561,10.564 -5.393,15.544 -0.226,0.613 -1.319,0.907 -2.01,1.349 -0.326,-0.671 -0.54,-1.433 -0.998,-1.997 -2.163,-2.662 -3.993,-5.952 -6.78,-7.588 -1.272,-0.746 -4.642,1.562 -6.773,2.931 -2.698,1.736 -5.104,3.927 -8.304,6.448 -0.318,-1.476 -0.675,-3.64 -1.274,-5.734 -0.369,-1.291 -0.797,-2.918 -1.76,-3.595 -1.097,-0.771 -2.851,-0.969 -4.261,-0.828 -1.346,0.134 -2.617,1.023 -4.212,1.706 2.849,4.106 5.475,8.523 8.787,12.345 1.321,1.525 3.996,2.685 6.299,0.012 2.111,-2.451 4.552,-4.673 7.095,-6.684 3.62,-2.862 5.75,-1.883 6.258,2.799 0.512,4.722 1.848,8.631 8.703,9.665 1.124,-3.763 2.121,-7.568 3.425,-11.263 0.662,-1.875 1.879,-3.554 2.845,-5.321 0.668,0.076 1.336,0.152 2.004,0.227 1.908,4.955 3.498,10.063 5.8,14.827 3.112,6.441 7.628,6.713 11.893,1.149 2.666,-3.477 5.295,-6.989 8.137,-10.319 0.953,-1.116 2.513,-1.713 3.795,-2.548 0.813,1.298 1.753,2.537 2.413,3.91 1.177,2.448 -0.356,6.049 4.292,7.025 2.71,0.569 3.64,0.312 4.611,-1.942 1.562,-3.62 3.022,-7.317 4.955,-10.738 2.331,-4.123 5.244,-4.311 8.015,-1.046 2.48,2.921 5.02,5.794 7.79,8.936 0.92,1.045 4.376,2.346 5.353,3.463" /></g><g
           transform="translate(174.7734,476.6636)"
           id="g80"><path
             id="path82"
             style="fill:#000000;fill-opacity:1;fill-rule:nonzero;stroke:none"
             d="m 0,0 c 3.898,-2.007 -10.51,-1.266 -15.827,-4.53 -10.806,-6.635 -22.299,-5.913 -32.893,2.327 -5.07,3.943 -11.311,4.939 -17.762,4.678 -4.928,-0.2 -9.892,0.295 -14.803,-0.045 -2.87,-0.199 -5.657,-1.48 -8.503,-2.186 -6.768,-1.68 -11.877,1.39 -16.37,6.222 -6.372,-5.368 -7.833,-15.251 -18.17,-17.129 -2.818,4.217 -6.009,8.915 -9.116,13.668 -2.97,4.542 -5.518,9.417 -8.953,13.565 -1.207,1.457 -4.479,1.286 -6.838,1.678 -1.341,0.223 -3.22,-0.491 -4.043,0.194 -6.348,5.285 -12.512,10.792 -18.669,16.3 -0.338,0.303 -0.115,1.233 -0.248,3.467 2.841,-1.297 5.148,-1.929 6.941,-3.254 4.252,-3.143 8.202,-6.691 12.404,-9.903 1.118,-0.854 2.756,-1.629 4.077,-1.517 8.043,0.683 12.356,-4.801 16.267,-10.191 4.066,-5.605 7.227,-11.866 10.825,-17.91 3.993,4.655 8.082,8.937 11.583,13.657 2.874,3.875 6.047,3.492 8.421,0.567 5.245,-6.463 11.495,-4.535 18.075,-3.576 4.495,0.654 9.178,0.152 13.769,-0.033 3.084,-0.124 6.155,-0.599 9.935,-0.99 0.116,0.159 0.776,1.066 1.552,2.129 3.833,-2.091 7.577,-4.457 11.578,-6.248 7.231,-3.236 13.943,-7.201 22.96,-4.281 4.359,1.411 8.427,3.601 12.837,4.693 2.914,0.72 6.018,0.81 9.04,0.845 C -1.33,2.204 0.075,2.079 0.68,1.253 0.785,0.524 0,0 0,0" /></g><g
           transform="translate(171.001,100.7041)"
           id="g84"><path
             id="path86"
             style="fill:#000000;fill-opacity:1;fill-rule:nonzero;stroke:none"
             d="m 0,0 c -7.384,7.229 -10.388,15.209 -13.175,23.223 -1.812,5.208 -3.098,10.602 -4.518,15.94 -1.397,5.253 -2.731,10.525 -3.975,15.817 -1.41,6.002 -2.38,12.126 -4.124,18.026 -1.405,4.755 0.112,7.382 5.167,7.12 3.45,-16.931 6.828,-33.915 10.427,-50.852 0.787,-3.702 2.19,-7.312 3.687,-10.802 0.46,-1.071 2.14,-2.121 3.334,-2.21 0.921,-0.069 2.53,1.21 2.823,2.191 0.705,2.353 1.057,4.877 1.125,7.344 0.411,14.86 0.591,29.727 1.104,44.583 0.143,4.116 0.865,8.279 1.933,12.257 0.345,1.287 2.645,2.05 4.05,3.052 0.848,-1.419 2.528,-2.908 2.416,-4.248 C 9.121,67.593 7.583,53.775 6.366,39.932 5.892,34.548 6.104,29.107 5.734,23.711 5.407,18.943 5.023,14.135 4.052,9.472 3.442,6.545 1.7,3.854 0,0" /></g><g
           transform="translate(303.1719,187.1172)"
           id="g88"><path
             id="path90"
             style="fill:#000000;fill-opacity:1;fill-rule:nonzero;stroke:none"
             d="m 0,0 c 3.864,4.412 8.802,3.19 13.25,3.227 4.877,0.04 6.234,1.464 6.091,6.413 -0.357,12.323 -1.41,24.517 -4.323,36.548 -0.434,1.792 0.975,4.032 1.531,6.064 0.629,0.013 1.259,0.025 1.888,0.039 0.763,-2.677 1.912,-5.31 2.22,-8.037 1.244,-11.027 2.248,-22.082 3.299,-33.131 0.262,-2.761 -0.651,-6.649 0.825,-8 1.577,-1.443 5.463,-0.043 8.106,-0.755 1.781,-0.479 4.176,-2.264 4.49,-3.829 0.576,-2.857 -1.999,-3.156 -4.381,-3.071 -1.812,0.065 -3.772,0.165 -5.409,-0.444 -1.181,-0.439 -2.753,-2.005 -2.766,-3.087 -0.218,-17.613 -0.264,-35.228 -0.237,-52.842 0.011,-6.815 0.235,-13.631 0.495,-20.441 0.109,-2.887 -0.149,-5.737 -3.686,-5.624 -3.316,0.106 -3.317,3.034 -3.259,5.644 0.415,18.478 0.799,36.959 1.193,55.438 0.127,5.993 0.4,11.988 0.334,17.979 -0.057,5.177 -1.172,5.789 -6.202,4.064 C 10.302,-4.926 2.168,-2.743 0,0" /></g><g
           transform="translate(901.7998,151.959)"
           id="g92"><path
             id="path94"
             style="fill:#000000;fill-opacity:1;fill-rule:nonzero;stroke:none"
             d="m 0,0 c 0.238,-6.095 2.565,-7.999 8.711,-6.764 1.296,0.261 2.855,0.203 3.808,0.93 1.246,0.95 2.979,2.667 2.821,3.823 C 14.473,4.312 13.335,10.627 11.747,16.805 11.22,18.854 9.322,20.763 7.631,22.26 3.627,25.803 0.466,24.658 0.102,19.271 -0.33,12.874 0,6.426 0,0 m -5.397,-14.78 c 0,11.469 -0.067,23.538 0.043,35.603 0.031,3.371 -0.774,7.302 3.282,9.23 4.546,2.16 8.678,0.024 11.97,-2.523 4.326,-3.346 7.651,-7.654 8.353,-13.636 0.616,-5.251 2.133,-10.392 3.1,-15.61 1.094,-5.908 -0.647,-8.794 -6.655,-10.166 -3.024,-0.691 -6.296,-0.712 -9.412,-0.473 -3.433,0.261 -5.541,-1.147 -5.058,-4.322 1.154,-7.59 2.366,-15.252 4.609,-22.561 1.126,-3.671 4.786,-5.391 8.958,-2.575 2.161,1.459 4.557,2.663 6.998,3.579 1.145,0.428 2.908,0.299 3.883,-0.345 0.538,-0.356 0.468,-2.571 -0.088,-3.489 -3.776,-6.246 -16.534,-9.172 -21.536,-4.261 -2.986,2.932 -4.941,7.535 -5.933,11.725 -1.474,6.227 -1.686,12.752 -2.514,19.824" /></g><g
           transform="translate(647.4453,183.5967)"
           id="g96"><path
             id="path98"
             style="fill:#000000;fill-opacity:1;fill-rule:nonzero;stroke:none"
             d="m 0,0 c -5.017,0.564 -9.899,1.114 -14.782,1.664 4.234,6.354 10.095,4.1 15.635,4.988 v 48.044 c 0.443,0.256 0.885,0.512 1.328,0.768 C 3.109,53.89 4.75,52.362 4.853,50.736 5.64,38.306 6.22,25.859 6.673,13.412 6.936,6.187 6.771,6.225 14.201,7.176 15.477,7.339 17.078,7.362 18.071,6.73 19.421,5.873 20.33,4.323 21.428,3.07 20.016,2.481 18.65,1.637 17.18,1.371 15.569,1.08 13.853,1.44 12.199,1.309 8.633,1.025 6.454,-0.388 6.397,-4.563 6.168,-21.582 5.698,-38.598 5.318,-55.615 5.151,-63.064 5.103,-70.52 4.711,-77.957 c -0.064,-1.204 -1.639,-2.328 -2.516,-3.489 -0.902,1.384 -2.572,2.762 -2.583,4.154 -0.07,9.131 0.322,18.265 0.366,27.398 C 0.057,-33.306 0,-16.718 0,0" /></g><g
           transform="translate(1102.8877,144.5322)"
           id="g100"><path
             id="path102"
             style="fill:#000000;fill-opacity:1;fill-rule:nonzero;stroke:none"
             d="m 0,0 c 0,5.043 0.25,9.006 -0.07,12.923 -0.317,3.878 -0.76,7.864 -2.031,11.495 -0.666,1.902 -3.04,3.876 -5.006,4.37 -0.971,0.244 -2.92,-2.684 -4.137,-4.384 -0.847,-1.184 -1.487,-2.675 -1.726,-4.111 -1.246,-7.517 -2.335,-15.06 -3.623,-23.548 C -9.755,-1.914 -4.607,-0.904 0,0 m -21.983,-8.394 c 1.655,11.112 2.954,22.291 5.092,33.309 1.374,7.079 5.841,10.253 11.196,9.521 C -0.254,33.691 4.858,27.627 5.231,21.847 5.753,13.782 3.69,6.218 7.147,-2.323 7.391,-5.208 5.924,-5.962 3.308,-6.149 -2.222,-6.545 -7.749,-7.11 -13.229,-7.928 c -1.056,-0.157 -2.527,-1.668 -2.729,-2.755 -1.628,-8.761 1.184,-16.493 6.786,-23.016 1.165,-1.356 4.94,-1.399 7.068,-0.699 1.668,0.547 2.776,3.101 3.903,4.906 0.904,1.449 1.272,2.11 1.985,3.679 0.469,0.562 2.716,0.89 3.031,-1.136 0.317,-2.032 -0.161,-8.135 -1.065,-9.977 -1.005,-2.049 -2.879,-5.037 -4.534,-5.143 -4.703,-0.303 -9.94,-1.95 -13.813,3.04 -7.035,9.064 -10.88,14.894 -9.386,26.205 -0.031,1.929 0.171,3.042 0,4.43" /></g><g
           transform="translate(583.9268,172.1768)"
           id="g104"><path
             id="path106"
             style="fill:#000000;fill-opacity:1;fill-rule:nonzero;stroke:none"
             d="m 0,0 c 1.178,0.158 1.629,0.079 1.795,0.261 9.626,10.545 21.125,5.204 32.096,3.621 1.347,-0.194 2.26,-1.934 2.26,-3.371 0,-1.438 -1.695,-1.749 -3.208,-1.706 C 26.694,-1.016 20.439,0.02 14.219,-0.188 7.062,-0.428 0.791,-8.493 1.315,-15.535 2.439,-30.622 3.551,-45.71 4.469,-60.811 4.625,-63.386 3.95,-66.06 3.335,-68.609 3.123,-69.49 1.678,-70.886 1.229,-70.737 c -1.108,0.367 -2.067,1.404 -2.876,2.35 -0.361,0.423 -0.249,1.274 -0.299,1.934 -1.331,17.722 -2.672,35.442 -3.973,53.167 -0.558,7.605 -0.618,15.251 -1.409,22.831 -0.201,1.919 1.114,4.217 2.41,4.744 C -2.891,13.906 -1.65,11.3 -1.12,9.483 -0.263,6.547 -0.342,3.338 0,0" /></g><g
           transform="translate(854.8086,137.4014)"
           id="g108"><path
             id="path110"
             style="fill:#000000;fill-opacity:1;fill-rule:nonzero;stroke:none"
             d="m 0,0 c 0,9.793 -0.259,19.595 0.088,29.375 0.245,6.92 1.792,13.803 1.904,20.716 0.228,14.087 -0.199,28.182 -0.137,42.274 0.009,1.783 1.336,3.56 2.052,5.34 C 4.893,95.973 6.568,94.313 6.76,92.498 9.112,70.178 7.584,47.894 6.375,25.56 5.618,11.576 6.687,-2.505 6.882,-16.543 6.95,-21.443 7.039,-26.359 6.695,-31.239 6.61,-32.444 4.873,-33.533 3.896,-34.676 3.14,-33.525 1.813,-32.422 1.717,-31.218 0.88,-20.837 0.639,-11.421 -0.043,-1.026 0.004,-0.516 -0.005,-0.28 0,0" /></g><g
           transform="translate(1019.4619,164.9062)"
           id="g112"><path
             id="path114"
             style="fill:#000000;fill-opacity:1;fill-rule:nonzero;stroke:none"
             d="m 0,0 c 4.211,3.104 7.685,6.304 11.708,8.492 7.758,4.221 18.515,0.617 22.4,-7.154 0.496,-0.99 -0.221,-2.099 -0.95,-2.713 -1.292,-0.864 -2.445,-0.799 -3.754,0.022 C 27.229,0.013 25.621,2.265 23.476,3.693 18.29,7.146 13.809,4.436 9.893,1.244 3.617,-3.87 -0.293,-10.216 0.138,-18.862 c 0.573,-11.485 0.705,-22.992 0.867,-34.492 0.014,-0.946 -1.185,-1.908 -1.82,-2.863 -1.16,1.1 -3.225,2.119 -3.331,3.313 -0.627,7.12 -0.698,14.286 -1.154,21.425 -0.812,12.706 -1.841,25.399 -2.554,38.11 -0.076,1.346 1.342,2.775 2.067,4.167 1.142,-1.131 2.668,-2.076 3.328,-3.44 C -1.698,5.786 -1.789,3.822 -1.33,2.075 -1.138,1.342 -0.485,0.729 0,0" /></g><g
           transform="translate(837.4531,284.1875)"
           id="g116"><path
             id="path118"
             style="fill:#000000;fill-opacity:1;fill-rule:nonzero;stroke:none"
             d="m 0,0 c -0.479,1.318 1.125,1.625 2.375,4.812 2.333,5.951 4.582,12.721 6.25,18.875 0.488,1.801 2.771,1.185 4.514,2.746 4.91,-6.552 1.212,-11.584 8.601,-17.386 1.093,0 3.972,0.191 4.427,1.504 1.846,5.334 3.813,10.412 9.993,11.834 0.728,-1.79 2.048,-3.754 2.271,-5.836 0.544,-5.086 0.254,-9.629 1.244,-17.532 0.419,-3.348 -0.758,-4.746 -4.268,-5.566 -2.189,5.67 2.105,12.633 -2.417,16.681 C 29.685,8.2 26.895,5.78 23.708,5.016 21.921,4.587 18.719,6.364 17.5,8.096 15.491,10.95 14.574,14.572 11.784,18.182 11.072,16.307 10.37,14.428 9.646,12.558 8.08,8.515 6.503,4.475 4.95,0.417 4.97,0.4 0,0 0,0" /></g><g
           transform="translate(226.25,123.3096)"
           id="g120"><path
             id="path122"
             style="fill:#000000;fill-opacity:1;fill-rule:nonzero;stroke:none"
             d="m 0,0 c 0,-5.316 0.042,-10.633 -0.043,-15.948 -0.013,-0.84 -0.599,-1.672 -0.92,-2.508 -0.889,0.456 -2.208,0.69 -2.58,1.412 -0.843,1.637 -1.628,3.493 -1.716,5.295 -0.479,9.769 -0.446,19.57 -1.177,29.316 -0.501,6.695 -2.38,13.289 -2.837,19.983 -0.294,4.311 -1.737,8.952 0.836,13.089 0.561,0.901 2.143,1.903 2.965,1.698 0.833,-0.207 1.664,-1.788 1.866,-2.883 0.481,-2.606 0.61,-5.28 0.844,-7.93 1.217,-13.81 2.423,-27.622 3.632,-41.433 z" /></g><g
           transform="translate(636.0088,290.8271)"
           id="g124"><path
             id="path126"
             style="fill:#000000;fill-opacity:1;fill-rule:nonzero;stroke:none"
             d="m 0,0 c 0.223,-2.301 0.446,-4.603 0.695,-7.169 -2.073,-0.623 -4.039,-1.214 -6.278,-1.886 -4.146,8.919 -8.564,17.542 -14.894,24.487 -5.076,-5.005 -9.298,-9.169 -13.522,-13.333 -0.626,0.337 -1.253,0.673 -1.88,1.01 1.722,2.184 3.49,4.331 5.143,6.566 0.762,1.031 1.927,2.29 1.829,3.345 -0.551,5.912 5.264,6.031 7.916,8.975 0.176,0.195 1.449,-0.119 1.648,-0.495 2.457,-4.637 4.511,-9.516 7.283,-13.947 2.156,-3.448 5.173,-6.356 7.867,-9.575 0.619,1.216 1.372,2.696 2.124,4.175 C -1.38,1.436 -0.689,0.718 0,0" /></g><g
           transform="translate(636.0088,290.8271)"
           id="g128"><path
             id="path130"
             style="fill:#000000;fill-opacity:1;fill-rule:nonzero;stroke:none"
             d="m 0,0 c -0.689,0.718 -1.38,1.436 -2.069,2.153 1.31,4.933 2.421,9.933 4.03,14.767 0.651,1.956 2.393,3.548 3.872,5.632 C 11.261,17.735 16.11,13.698 16.051,6.194 16.033,3.947 17.528,1.585 18.668,-0.544 20.893,-4.701 20.857,-5.09 16.308,-7.736 10.965,-1.959 14.953,7.893 7.274,13.269 4.74,8.647 2.37,4.324 0,0" /></g><g
           transform="translate(600.1299,293.9365)"
           id="g132"><path
             id="path134"
             style="fill:#000000;fill-opacity:1;fill-rule:nonzero;stroke:none"
             d="m 0,0 c 0.627,-0.337 1.254,-0.674 1.88,-1.011 0.814,-6.047 -4.609,-5.267 -8.355,-7.886 -1.495,12.621 -8.217,21.343 -18.2,28.507 -3.136,-3.81 -7.692,-9.117 -10.96,-13.089 -1.121,0.728 -5.271,0.063 -4.198,0.996 3.833,3.333 9.504,12.497 12.684,15.53 0.795,0.759 3.252,0.987 4.014,0.35 2.534,-2.117 4.666,-4.721 6.907,-7.18 0.654,-0.717 0.986,-1.943 1.759,-2.301 C -8.214,11.02 -7.112,4.174 -3.279,-0.565 -1.332,-2.973 -0.697,-2.522 0,0" /></g><g
           transform="translate(647.6045,50.7373)"
           id="g136"><path
             id="path138"
             style="fill:#000000;fill-opacity:1;fill-rule:nonzero;stroke:none"
             d="M 0,0 C -1.367,-9.771 0.464,-17.252 4.636,-19.484 6.361,-8.914 4.858,-2.039 0,0 m 6.71,-24.747 c -1.764,0.75 -0.036,1.326 -1.385,2.093 -8.059,4.584 -6.62,11.664 -7.336,17.893 -0.76,6.605 -0.201,8.774 6.89,4.357 V 24.81 C 5.489,24.804 6.1,24.798 6.71,24.791 Z" /></g><g
           transform="translate(366.3657,27.6611)"
           id="g140"><path
             id="path142"
             style="fill:#000000;fill-opacity:1;fill-rule:nonzero;stroke:none"
             d="m 0,0 c -1.233,7.841 -2.466,15.682 -3.699,23.521 l 1.412,0.381 c 0.502,-1.362 1.005,-2.724 1.506,-4.086 6.446,3.58 6.775,3.53 10.352,-1.776 1.389,1.206 3.35,2.852 5.016,4.299 2.5,0.083 6.132,-14.872 7.705,-22.431 C 21.895,-0.251 21.497,-0.409 21.1,-0.568 19.462,6.036 15.587,19.558 14.728,19.791 5.921,15.506 13.408,6.873 12.129,1.056 11.7,0.995 11.27,0.936 10.841,0.875 10.007,5.092 9.339,9.351 8.28,13.51 7.616,16.119 8.365,20.733 4.006,19.948 0.339,19.287 -1.221,15.841 -0.336,11.728 0.458,8.027 0.881,4.248 1.468,0.504 0.979,0.336 0.489,0.168 0,0" /></g><g
           transform="translate(700.0156,25.6875)"
           id="g144"><path
             id="path146"
             style="fill:#000000;fill-opacity:1;fill-rule:nonzero;stroke:none"
             d="m 0,0 c -3.578,18.062 -0.91,24.604 -7.625,24.133 -0.521,0 -0.72,-0.589 -0.835,-1.196 C -10.188,13.84 -5.332,1.582 0,0 m -3.746,25.326 c -1.23,8.128 -2.454,16.225 -3.679,24.321 0.637,0.084 1.274,0.169 1.911,0.253 2.363,-17.056 4.726,-34.113 7.14,-51.536 -7.324,1.273 -9.24,5.668 -10.007,11.106 -0.439,3.116 -1.34,6.17 -1.728,9.291 -0.832,6.676 -0.253,7.214 6.363,6.565" /></g><g
           transform="translate(896.7031,36.8125)"
           id="g148"><path
             id="path150"
             style="fill:#000000;fill-opacity:1;fill-rule:nonzero;stroke:none"
             d="M 0,0 C 0.375,1.875 -0.09,4.777 -0.562,5.062 -3.216,3.688 -6.843,0.035 -7.437,-2.125 -7.491,-5.437 -6.062,-7 -5.141,-7.729 c 0.45,0.118 1.016,0 1.925,0.917 C -1.562,-5.062 -2,-5.437 0,0 m -1.967,12.828 c -1.394,-1.55 -1.801,-2 -3.521,-3.91 -1.387,-0.324 -2.303,0.546 -2.095,0.77 1.789,1.928 4.316,4.778 6.161,6.656 0.188,0.109 0.579,0.15 0.672,-0.148 0.752,-2.403 2.01,-5.966 2.144,-8.346 0.481,-8.6 0.969,-11.856 1.501,-18.745 -1.895,0 -1.853,6.139 -2.395,6.77 -1.562,-4.188 -5.005,-5.421 -6.384,-4.779 -3.304,1.538 -4.443,6.756 -2.477,9.55 1.22,1.737 2.739,3.633 4.575,4.492 3.854,1.8 3.463,4.237 1.819,7.69" /></g><g
           transform="translate(296.4839,49.9912)"
           id="g152"><path
             id="path154"
             style="fill:#000000;fill-opacity:1;fill-rule:nonzero;stroke:none"
             d="m 0,0 c -5.8,-7.405 -6.576,-14.495 -4.217,-22.198 l -1.915,-0.003 c -0.72,8.858 -1.439,17.717 -2.16,26.575 0.36,0.119 0.72,0.238 1.08,0.356 0.699,-2.419 0.979,-6.499 1.765,-9.221 1.179,1.463 2.77,4.575 4.068,6.184 C 2.656,0.67 4.77,-1.345 4.455,-5.928 4.075,-11.465 4.365,-17.047 3.986,-22.688 0.324,-15.967 5.553,-4.491 0,0" /></g><g
           transform="translate(838.1426,28.4971)"
           id="g156"><path
             id="path158"
             style="fill:#000000;fill-opacity:1;fill-rule:nonzero;stroke:none"
             d="m 0,0 v 25.613 h -5.729 l -0.269,0.976 c 1.829,0.769 3.658,1.54 5.823,2.452 v 15.681 c 0.543,0.037 1.086,0.075 1.629,0.112 C 1.726,39.497 1.996,34.16 2.264,28.896 4.419,28.376 6.35,27.909 8.28,27.443 8.262,27.021 8.243,26.599 8.225,26.177 6.413,25.819 4.601,25.462 1.94,24.937 V 0.037 C 1.294,0.024 0.646,0.013 0,0" /></g><g
           transform="translate(853.3594,50.6504)"
           id="g160"><path
             id="path162"
             style="fill:#000000;fill-opacity:1;fill-rule:nonzero;stroke:none"
             d="m 0,0 c 0.415,-4.729 0.737,-9.471 1.298,-14.183 0.188,-1.59 1.014,-3.293 1.606,-4.523 1.377,-2.86 2.573,-2.503 4.502,-2.319 3.938,0.375 3.119,3.21 3.073,4.67 -0.153,4.802 -0.791,9.588 -1.205,14.384 -0.087,1.015 -0.012,2.043 -0.012,3.066 0.467,0.073 0.934,0.146 1.401,0.219 0.333,-1.893 0.763,-3.776 0.98,-5.682 0.466,-4.115 0.883,-8.239 1.207,-12.368 0.21,-2.688 0.439,-5.625 -3.186,-6.28 -3.602,-0.65 -7.95,-0.473 -8.972,3.328 -1.697,6.318 -2.009,13.009 -2.905,19.542 C -1.476,-0.097 -0.737,-0.049 0,0" /></g><g
           transform="translate(667.0762,33.6738)"
           id="g164"><path
             id="path166"
             style="fill:#000000;fill-opacity:1;fill-rule:nonzero;stroke:none"
             d="m 0,0 c -0.567,2.376 -0.791,4.14 -0.825,6.523 -0.059,4.026 2.047,6.393 6.724,5.861 -0.892,2.91 -1.957,9.047 -2.96,8.88 -0.645,-0.271 -2.981,-4.146 -4.192,-6.042 l -0.615,0.299 c 0.162,0.73 0.119,1.609 0.522,2.163 1.381,1.894 2.919,3.674 4.397,5.498 0.659,0.102 2.598,-3.757 3.02,-5.815 C 6.997,12.853 7.298,8.214 7.949,3.64 8.434,0.24 9.068,-3.137 9.753,-7.216 8.752,-6.799 7.886,-4.128 7.044,-2.466 6.1,-3.659 5.329,-5.767 3.847,-7.642 0.625,-3.007 -0.015,-0.681 -0.374,1.746 -0.562,4.204 0.721,-1.393 3.148,-4.843 l 1.568,1.33 C 5.394,1.144 7.412,5.936 2.984,10.457 -1.029,8.764 1.221,-0.299 0,0" /></g><g
           transform="translate(345.9634,40.8594)"
           id="g168"><path
             id="path170"
             style="fill:#000000;fill-opacity:1;fill-rule:nonzero;stroke:none"
             d="m 0,0 c -2.884,-3.168 -2.707,-6.989 -1.234,-10.218 0.68,-1.491 3.896,-1.825 6.16,-2.765 C 5.933,-6.951 5.196,-2.685 0,0 M 4.663,-0.73 C 5.528,7.969 2.365,10.266 -2.885,6.578 -2.963,6.537 -3.881,6.614 -4.573,6.703 -1.135,10.704 1.685,10.355 3.098,9.577 4.861,8.606 6.608,6.044 6.777,4.035 7.262,-1.724 6.948,-7.55 6.948,-14.52 c -2.642,0.581 -7.576,0.618 -8.837,2.237 -1.934,2.486 -2.559,2.424 -1.461,11.743 0.05,0.424 1.943,2.531 3.402,2.493 C 0.966,1.93 3.586,-0.039 4.663,-0.73" /></g><g
           transform="translate(550.9126,28.2334)"
           id="g172"><path
             id="path174"
             style="fill:#000000;fill-opacity:1;fill-rule:nonzero;stroke:none"
             d="m 0,0 c -4.119,-0.259 -7.563,-0.88 -11.602,-0.422 -0.953,0.108 -1.476,4.013 -1.269,6.403 1.412,0.369 1.044,-4.124 2.745,-4.756 1.879,-0.7 5.474,0.078 9.167,0.584 0,0.504 -0.085,0.605 -0.459,1.125 -2.708,3.76 -5.634,7.487 -7.594,10.881 -1.408,2.44 -2.54,5.371 -2.672,8.134 -0.165,3.471 3.42,4.915 5.804,2.363 2.14,-2.291 3.485,-5.325 5.181,-8.032 -0.385,-0.265 -0.667,-0.263 -1.26,0.049 -2.03,2.891 -4.542,7.021 -6.125,7.617 -0.875,0.488 -1.875,-0.221 -2.122,-0.75 C -10.334,20.392 -9.47,18.015 -8.22,15.96 -5.267,11.103 -1.771,6.575 1.506,1.914 1.245,1.293 1.506,0.642 0,0" /></g><g
           transform="translate(263.2656,51.625)"
           id="g176"><path
             id="path178"
             style="fill:#000000;fill-opacity:1;fill-rule:nonzero;stroke:none"
             d="M 0,0 C -0.27,-11.661 -1.083,-12.106 5.918,-10.145 4.374,-7.194 1.809,-3.455 0,0 m 0.777,1.911 c 2.261,-3.828 4.591,-7.619 6.67,-11.543 0.194,-0.366 -1.039,-1.943 -1.887,-2.302 -1.289,-0.545 -2.821,-0.515 -4.963,-0.837 0.89,-4.069 2.216,-10.312 3.091,-11.187 1.367,-0.494 4.618,-0.274 8.208,0.541 0.548,0.125 0.729,-0.052 0.639,-0.208 -7.545,-5.418 -11.678,-3.889 -12.762,3.604 -1.005,6.959 -1.157,13.404 -1.711,20.428 0,0.885 1.438,1.781 2.715,1.504" /></g><g
           transform="translate(810.3838,53.0566)"
           id="g180"><path
             id="path182"
             style="fill:#000000;fill-opacity:1;fill-rule:nonzero;stroke:none"
             d="m 0,0 c 0.776,-6.681 2.361,-13.393 2.089,-20.03 -0.245,-5.993 -5.534,-4.032 -9.769,-3.881 -0.98,7.528 -1.939,14.896 -2.898,22.265 l 1.57,0.228 c 1.027,-6.725 2.053,-13.448 3.056,-20.021 6.109,-0.725 6.75,-0.076 5.936,5.327 -0.793,5.264 -1.561,10.533 -2.339,15.8 C -1.57,-0.208 -0.785,-0.104 0,0" /></g><g
           transform="translate(426.0625,27.0156)"
           id="g184"><path
             id="path186"
             style="fill:#000000;fill-opacity:1;fill-rule:nonzero;stroke:none"
             d="m 0,0 c -1.098,7.203 -2.133,14.677 -3.231,21.88 0.48,0.171 0.959,0.342 1.439,0.514 0.755,-1.341 0.589,-4.623 1.058,-6.577 0.437,1.625 2.87,4.311 3.862,4.766 1.506,0.69 4.175,1.303 5.688,1.064 0.889,-0.139 1.85,-12.111 2.012,-13.35 0.831,-6.364 0.464,-3.033 1.57,-9.292 -0.429,-0.077 -1.153,0.155 -1.583,0.077 C 10.299,2.449 9.713,5.809 9.284,9.187 8.831,12.761 8.304,16.175 7.935,19.758 4.025,19.329 1.945,18.379 0.905,15.333 0.084,12.927 0.812,5.89 0.812,0.094 0.812,0.094 0.281,-0.016 0,0" /></g><g
           transform="translate(876.9922,49.2881)"
           id="g188"><path
             id="path190"
             style="fill:#000000;fill-opacity:1;fill-rule:nonzero;stroke:none"
             d="M 0,0 C 2.349,1.761 4.579,3.433 7.685,5.76 8.034,2.769 8.306,0.449 8.577,-1.87 8.17,-1.964 7.764,-2.058 7.357,-2.151 6.781,-1.095 6.206,-0.039 5.485,1.282 c -8.565,-5.75 -6.868,-14.407 -5.888,-22.838 -0.764,0.082 -1.528,0.165 -2.291,0.248 -0.495,7.98 -0.991,15.958 -1.486,23.937 0.409,0.215 0.817,0.429 1.224,0.642 C -2.03,2.247 -1.104,1.223 0,0" /></g><g
           transform="translate(315.7705,48.0625)"
           id="g192"><path
             id="path194"
             style="fill:#000000;fill-opacity:1;fill-rule:nonzero;stroke:none"
             d="m 0,0 c 3.058,1.437 7.432,2.371 10.203,1.609 1.132,-0.311 1.609,-3.008 2.21,-5.256 0.133,-0.5 -0.137,-1.556 -0.23,-1.915 -0.43,-0.155 -1.454,-0.063 -1.709,0.166 0.287,0.63 0.554,1.138 0.221,2.058 C 10.289,-2.215 9.749,-0.523 9.277,0.781 7.224,0.287 5.39,-0.154 2.654,-0.812 6.918,-7.601 10.804,-13.784 14.702,-19.988 7.105,-24.116 2.026,-21.64 2.041,-13.84 4.708,-16.729 5.407,-22.637 11.827,-19.059 8.096,-12.835 4.415,-7.363 0,0" /></g><g
           transform="translate(451.9614,68.1182)"
           id="g196"><path
             id="path198"
             style="fill:#000000;fill-opacity:1;fill-rule:nonzero;stroke:none"
             d="m 0,0 c 0.304,-0.196 0.632,0.069 0.827,-0.305 0.72,-1.384 0.481,-10.735 1.992,-13.983 0.084,-0.179 2.408,-0.467 3.895,-0.896 0.334,-0.095 0.299,-0.463 0.299,-0.684 -0.417,-0.896 -4.18,0.46 -4.221,-1.083 -0.196,-7.394 -0.088,-17.411 -0.088,-24.81 l -1.217,-0.093 v 25.387 c -3.303,0.321 -5.475,0.531 -7.646,0.741 0.003,0.331 0.006,0.663 0.009,0.995 1.986,0.205 5.088,0.221 7.267,0.446 C 1.117,-9.903 0,-5.503 0,0" /></g><g
           transform="translate(715.9824,42.6533)"
           id="g200"><path
             id="path202"
             style="fill:#000000;fill-opacity:1;fill-rule:nonzero;stroke:none"
             d="M 0,0 H 5.961 C 4.533,3.264 3.35,5.969 2.167,8.674 M 8.29,-1.369 C 7.511,-1.78 6.408,-1.403 5.961,-1.486 3.531,-1.937 -0.515,-0.12 0.763,-5.445 c 1.458,-6.083 2.812,-7.961 7.883,-7.039 0.653,0.119 1.36,-0.065 2.488,-0.137 -3.426,-2.673 -8.15,-3.105 -9.282,-0.5 -1.812,4.163 -3.119,8.786 -3.415,13.296 -0.266,4.044 1.118,8.197 1.773,12.302 0.545,0.043 1.089,0.086 1.634,0.127 C 3.938,8.063 6.033,3.523 8.29,-1.369" /></g><g
           transform="translate(590.3389,42.6396)"
           id="g204"><path
             id="path206"
             style="fill:#000000;fill-opacity:1;fill-rule:nonzero;stroke:none"
             d="m 0,0 c -0.928,-0.432 -1.844,8.568 -2.616,8.313 -3.848,0.589 0.508,-19.341 4.418,-22.14 1.201,-0.86 2.925,0.618 4.477,0.421 -2.5,-3.74 -5.768,-3.96 -7.471,0.203 -2.24,5.474 -4.029,11.218 -5.162,17.013 -0.443,2.266 0.468,7.3 2.361,7.91 C 0.281,10.943 0.564,3.949 0,0" /></g><g
           transform="translate(822.6514,28.9785)"
           id="g208"><path
             id="path210"
             style="fill:#000000;fill-opacity:1;fill-rule:nonzero;stroke:none"
             d="m 0,0 v 43.828 c 0.271,0.009 0.541,0.019 0.811,0.027 C 1.319,29.286 1.829,14.717 2.338,0.148 1.559,0.099 0.779,0.05 0,0" /></g><g
           transform="translate(788.8203,45.46)"
           id="g212"><path
             id="path214"
             style="fill:#000000;fill-opacity:1;fill-rule:nonzero;stroke:none"
             d="m 0,0 c -0.363,2.145 -0.727,4.288 -1.333,7.868 -4.399,-7.264 -3.959,-14.423 -3.358,-20.952 0.909,-2.016 3.472,-2.379 4.324,-2.063 2.283,0.158 2.736,0.66 4.922,0.282 -2.372,-2.802 -5.702,-2.43 -8.5,-1.492 -1.384,0.462 -2.864,3.086 -2.875,4.744 -0.037,5.125 0.275,10.311 1.133,15.358 0.43,2.526 2.34,4.801 3.581,7.19 0.704,0.669 0.489,1.193 1.656,1.188 C 0.149,8.644 1.018,3.709 1.618,0.229 1.079,0.152 0.539,0.076 0,0" /></g><g
           transform="translate(404.7334,46.1172)"
           id="g216"><path
             id="path218"
             style="fill:#000000;fill-opacity:1;fill-rule:nonzero;stroke:none"
             d="m 0,0 c -6.914,13.506 2.794,-3.104 4.641,-5.342 -3.242,-0.332 -5.752,-0.59 -8.255,-0.846 1.05,-10.261 1.826,-10.889 12.346,-10.219 -4.988,-4.161 -11.321,-4.005 -13.086,3.801 -1.889,8.358 -2.297,14.853 0.536,20.288 4.413,-6.049 4.078,-8.392 4.695,-9.867 -0.56,0.508 -3.276,5.931 -4.532,7.068 -0.959,-3.5 -0.509,-8.167 -0.542,-9.141 2.306,0 4.198,-0.067 6.208,-0.067 C 0.803,-2.075 0.395,-1.347 0,0" /></g><g
           transform="translate(472.9531,50.25)"
           id="g220"><path
             id="path222"
             style="fill:#000000;fill-opacity:1;fill-rule:nonzero;stroke:none"
             d="m 0,0 c -2.979,0.458 -5.146,-14.507 -2.638,-18.049 0.516,-0.729 1.316,-1.357 1.922,-1.748 0.423,-0.272 1.107,-0.224 1.783,-0.224 1.355,0.209 2.115,4.24 2.115,5.083 C 2.438,-5.875 0.5,-0.437 0,0 m 0.854,1.396 c 1.39,-4.278 2.143,-6.43 2.923,-9.955 0.565,-2.548 0.645,-5.304 0.365,-7.906 -0.194,-1.802 -1.115,-4.781 -2.156,-4.988 -2.528,-0.502 -5.431,-0.521 -6.603,3.291 -2.063,6.706 -1.492,15.186 3.691,19.857 0.166,0.15 1.405,0.43 1.78,-0.299" /></g><g
           transform="translate(347.8057,452.9756)"
           id="g224"><path
             id="path226"
             style="fill:#000000;fill-opacity:1;fill-rule:nonzero;stroke:none"
             d="m 0,0 c 0.016,0.261 6.133,0.653 6.149,0.915 1.701,0.114 4.956,2.039 7.665,2.222 2.833,0 6.578,1.065 11.593,2.166 C 23.157,0.587 5.986,-2.666 0,0" /></g><g
           transform="translate(224.5366,186.75)"
           id="g228"><path
             id="path230"
             style="fill:#000000;fill-opacity:1;fill-rule:nonzero;stroke:none"
             d="m 0,0 c -1.767,-1.49 -1.051,-1.677 -3.333,-2.667 -0.549,0.502 -4.687,1.415 -5.235,1.917 1.171,2.233 2.342,4.466 3.513,6.699 C -3.253,4.763 -1.452,3.576 0.35,2.39 0.208,1.831 0.141,0.558 0,0" /></g><g
           transform="translate(610.1113,28.5039)"
           id="g232"><path
             id="path234"
             style="fill:#000000;fill-opacity:1;fill-rule:nonzero;stroke:none"
             d="m 0,0 c -1.097,7.734 -2.192,15.469 -3.289,23.203 0.479,0.067 0.958,0.133 1.437,0.199 C -0.736,15.635 0.378,7.867 1.493,0.1 0.995,0.066 0.497,0.033 0,0" /></g><g
           transform="translate(569.4014,28.2744)"
           id="g236"><path
             id="path238"
             style="fill:#000000;fill-opacity:1;fill-rule:nonzero;stroke:none"
             d="m 0,0 c -0.761,0.229 -2.195,3.142 -2.677,4.998 -1.073,4.142 -1.576,8.453 -2.004,12.726 -0.135,1.356 -0.455,3.627 0.67,4.218 2,0.596 4.016,-1.585 4.523,-2.88 C 2.131,14.926 3.864,11.361 4.681,5.18 3.989,1.663 1.614,0.229 0,0 m 1.299,21.161 c -0.778,1.598 -3.909,2.649 -6.18,2.741 -0.63,0.026 -2.269,-2.482 -2.115,-3.652 0.821,-6.239 1.919,-12.455 3.288,-18.598 0.287,-1.288 2.046,-3.028 3.251,-3.133 1.47,-0.128 3.495,0.887 4.506,2.07 1.199,1.402 2.508,3.637 2.508,5.814 -1.443,5.528 -2.968,10.053 -5.258,14.758" /></g><g
           transform="translate(626.126,52.5801)"
           id="g240"><path
             id="path242"
             style="fill:#000000;fill-opacity:1;fill-rule:nonzero;stroke:none"
             d="M 0,0 C 2.232,-3.574 3.255,-5.21 5.112,-8.184 4.9,-8.681 1.348,-9.398 -1.324,-9.792 -0.881,-6.518 -0.548,-4.057 0,0 m 7.113,-23.539 c -5.462,-0.691 -6.845,0.884 -8.22,7.945 -0.945,4.849 2.299,4.471 5.193,5.099 3.241,0.703 2.401,2.399 2.127,3.058 -1.625,3.902 -3.069,6.898 -5.511,11.712 -0.25,0.221 -1.016,0.56 -1.187,0 -2.711,-8.894 -3.977,-17.781 -0.64,-25.882 1.842,-4.47 6.645,-5.339 10.549,-1.444 -1.177,-0.253 -1.737,-0.416 -2.311,-0.488" /></g><g
           transform="translate(506.6875,40.748)"
           id="g244"><path
             id="path246"
             style="fill:#000000;fill-opacity:1;fill-rule:nonzero;stroke:none"
             d="m 0,0 c 0,-1.501 -1.217,-2.719 -2.719,-2.719 -1.501,0 -2.718,1.218 -2.718,2.719 0,1.502 1.217,2.719 2.718,2.719 C -1.217,2.719 0,1.502 0,0" /></g><g
           transform="translate(757.4375,40.748)"
           id="g248"><path
             id="path250"
             style="fill:#000000;fill-opacity:1;fill-rule:nonzero;stroke:none"
             d="m 0,0 c 0,-1.501 -1.217,-2.719 -2.719,-2.719 -1.502,0 -2.718,1.218 -2.718,2.719 0,1.502 1.216,2.719 2.718,2.719 C -1.217,2.719 0,1.502 0,0" /></g><g
           transform="translate(607.667,57.5)"
           id="g252"><path
             id="path254"
             style="fill:#000000;fill-opacity:1;fill-rule:nonzero;stroke:none"
             d="m 0,0 c 0,-0.782 -0.485,-1.417 -1.084,-1.417 -0.598,0 -1.083,0.635 -1.083,1.417 0,0.782 0.485,1.417 1.083,1.417 C -0.485,1.417 0,0.782 0,0" /></g></g></g></g></svg>